<svg width="285" height="58" viewBox="0 0 285 58" fill="none" xmlns="http://www.w3.org/2000/svg">
<rect width="285" height="58" fill="white"/>
<path d="M20.6953 40V18.584H37.6436V40H33.1172V22.3633H25.2363V40H20.6953ZM49.8896 18.584C52.6533 18.584 54.6699 19.1797 55.9395 20.3711C57.209 21.5527 57.8438 23.1836 57.8438 25.2637C57.8438 26.2012 57.7021 27.0996 57.4189 27.959C57.1357 28.8086 56.6719 29.5654 56.0273 30.2295C55.3926 30.8936 54.543 31.4209 53.4785 31.8115C52.4141 32.1924 51.1006 32.3828 49.5381 32.3828H47.5898V40H43.0488V18.584H49.8896ZM49.6553 22.3047H47.5898V28.6621H49.084C49.9336 28.6621 50.6709 28.5498 51.2959 28.3252C51.9209 28.1006 52.4043 27.749 52.7461 27.2705C53.0879 26.792 53.2588 26.1768 53.2588 25.4248C53.2588 24.3701 52.9658 23.5889 52.3799 23.0811C51.7939 22.5635 50.8857 22.3047 49.6553 22.3047ZM81.3252 29.2627C81.3252 30.9131 81.1201 32.417 80.71 33.7744C80.2998 35.1221 79.6748 36.2842 78.835 37.2607C78.0049 38.2373 76.9502 38.9893 75.6709 39.5166C74.3916 40.0342 72.8779 40.293 71.1299 40.293C69.3818 40.293 67.8682 40.0342 66.5889 39.5166C65.3096 38.9893 64.25 38.2373 63.4102 37.2607C62.5801 36.2842 61.96 35.1172 61.5498 33.7598C61.1396 32.4023 60.9346 30.8936 60.9346 29.2334C60.9346 27.0166 61.2959 25.0879 62.0186 23.4473C62.751 21.7969 63.874 20.5176 65.3877 19.6094C66.9014 18.7012 68.8252 18.2471 71.1592 18.2471C73.4834 18.2471 75.3926 18.7012 76.8867 19.6094C78.3906 20.5176 79.5039 21.7969 80.2266 23.4473C80.959 25.0977 81.3252 27.0361 81.3252 29.2627ZM65.6953 29.2627C65.6953 30.7568 65.8809 32.0459 66.252 33.1299C66.6328 34.2041 67.2236 35.0342 68.0244 35.6201C68.8252 36.1963 69.8604 36.4844 71.1299 36.4844C72.4189 36.4844 73.4639 36.1963 74.2646 35.6201C75.0654 35.0342 75.6465 34.2041 76.0078 33.1299C76.3789 32.0459 76.5645 30.7568 76.5645 29.2627C76.5645 27.0166 76.1445 25.249 75.3047 23.96C74.4648 22.6709 73.083 22.0264 71.1592 22.0264C69.8799 22.0264 68.835 22.3193 68.0244 22.9053C67.2236 23.4814 66.6328 24.3115 66.252 25.3955C65.8809 26.4697 65.6953 27.7588 65.6953 29.2627ZM85.7637 18.584H89.8506V28.9258C89.8506 29.4336 89.8408 29.9951 89.8213 30.6104C89.8115 31.2256 89.792 31.8311 89.7627 32.4268C89.7432 33.0127 89.7236 33.5254 89.7041 33.9648C89.6846 34.4043 89.665 34.6973 89.6455 34.8438H89.7334L99.6211 18.584H105.056V40H101.013V29.7168C101.013 29.1699 101.022 28.5742 101.042 27.9297C101.062 27.2852 101.086 26.6602 101.115 26.0547C101.154 25.4492 101.188 24.9268 101.218 24.4873C101.247 24.0381 101.267 23.7402 101.276 23.5938H101.159L91.2275 40H85.7637V18.584ZM125.256 23.5938C125.256 25.0293 124.743 26.1865 123.718 27.0654C122.692 27.9443 121.394 28.4961 119.821 28.7207V28.8086C121.774 29.0039 123.278 29.5459 124.333 30.4346C125.388 31.3232 125.915 32.4805 125.915 33.9062C125.915 35.1562 125.573 36.2646 124.89 37.2314C124.206 38.1885 123.195 38.9404 121.857 39.4873C120.52 40.0244 118.864 40.293 116.892 40.293C115.271 40.293 113.83 40.1953 112.57 40C111.32 39.7949 110.236 39.5068 109.318 39.1357V35.3271C109.943 35.6201 110.642 35.874 111.413 36.0889C112.194 36.2939 112.985 36.4551 113.786 36.5723C114.587 36.6797 115.329 36.7334 116.013 36.7334C117.907 36.7334 119.279 36.46 120.129 35.9131C120.988 35.3662 121.418 34.5898 121.418 33.584C121.418 32.5586 120.798 31.8115 119.558 31.3428C118.317 30.874 116.647 30.6396 114.548 30.6396H112.541V27.0947H114.343C116.042 27.0947 117.36 26.9873 118.298 26.7725C119.245 26.5479 119.904 26.2305 120.275 25.8203C120.656 25.4004 120.847 24.8975 120.847 24.3115C120.847 23.5791 120.52 22.998 119.865 22.5684C119.211 22.1289 118.239 21.9092 116.95 21.9092C115.837 21.9092 114.797 22.0703 113.83 22.3926C112.863 22.7051 111.96 23.125 111.12 23.6523L109.143 20.6201C109.875 20.1416 110.656 19.7266 111.486 19.375C112.326 19.0234 113.244 18.7549 114.24 18.5693C115.236 18.374 116.35 18.2764 117.58 18.2764C119.191 18.2764 120.568 18.5059 121.711 18.9648C122.854 19.4238 123.728 20.0537 124.333 20.8545C124.948 21.6455 125.256 22.5586 125.256 23.5938ZM129.914 18.584H136.579C139.431 18.584 141.589 18.9844 143.054 19.7852C144.519 20.5859 145.251 21.9922 145.251 24.0039C145.251 24.8145 145.119 25.5469 144.855 26.2012C144.602 26.8555 144.23 27.3926 143.742 27.8125C143.254 28.2324 142.658 28.5059 141.955 28.6328V28.7793C142.668 28.9258 143.312 29.1797 143.889 29.541C144.465 29.8926 144.924 30.4102 145.266 31.0938C145.617 31.7676 145.793 32.666 145.793 33.7891C145.793 35.0879 145.476 36.2012 144.841 37.1289C144.206 38.0566 143.298 38.7695 142.116 39.2676C140.944 39.7559 139.548 40 137.927 40H129.914V18.584ZM134.455 27.0654H137.092C138.41 27.0654 139.323 26.8604 139.831 26.4502C140.339 26.0303 140.593 25.415 140.593 24.6045C140.593 23.7842 140.29 23.1982 139.685 22.8467C139.089 22.4854 138.142 22.3047 136.843 22.3047H134.455V27.0654ZM134.455 30.6689V36.25H137.414C138.781 36.25 139.733 35.9863 140.271 35.459C140.808 34.9316 141.076 34.2236 141.076 33.335C141.076 32.8076 140.959 32.3438 140.725 31.9434C140.49 31.543 140.095 31.2305 139.538 31.0059C138.991 30.7812 138.234 30.6689 137.268 30.6689H134.455ZM169.509 29.2627C169.509 30.9131 169.304 32.417 168.894 33.7744C168.483 35.1221 167.858 36.2842 167.019 37.2607C166.188 38.2373 165.134 38.9893 163.854 39.5166C162.575 40.0342 161.062 40.293 159.313 40.293C157.565 40.293 156.052 40.0342 154.772 39.5166C153.493 38.9893 152.434 38.2373 151.594 37.2607C150.764 36.2842 150.144 35.1172 149.733 33.7598C149.323 32.4023 149.118 30.8936 149.118 29.2334C149.118 27.0166 149.479 25.0879 150.202 23.4473C150.935 21.7969 152.058 20.5176 153.571 19.6094C155.085 18.7012 157.009 18.2471 159.343 18.2471C161.667 18.2471 163.576 18.7012 165.07 19.6094C166.574 20.5176 167.688 21.7969 168.41 23.4473C169.143 25.0977 169.509 27.0361 169.509 29.2627ZM153.879 29.2627C153.879 30.7568 154.064 32.0459 154.436 33.1299C154.816 34.2041 155.407 35.0342 156.208 35.6201C157.009 36.1963 158.044 36.4844 159.313 36.4844C160.603 36.4844 161.647 36.1963 162.448 35.6201C163.249 35.0342 163.83 34.2041 164.191 33.1299C164.562 32.0459 164.748 30.7568 164.748 29.2627C164.748 27.0166 164.328 25.249 163.488 23.96C162.648 22.6709 161.267 22.0264 159.343 22.0264C158.063 22.0264 157.019 22.3193 156.208 22.9053C155.407 23.4814 154.816 24.3115 154.436 25.3955C154.064 26.4697 153.879 27.7588 153.879 29.2627ZM190.72 18.584V36.2207H193.576V46.2402H189.196V40H175.778V46.2402H171.398V36.2207H173.054C173.61 35.1074 174.147 33.9307 174.665 32.6904C175.183 31.4502 175.666 30.1172 176.115 28.6914C176.564 27.2656 176.97 25.7178 177.331 24.0479C177.692 22.3779 177.995 20.5566 178.239 18.584H190.72ZM186.193 22.3633H181.843C181.696 23.3984 181.496 24.502 181.242 25.6738C180.988 26.8457 180.686 28.042 180.334 29.2627C179.992 30.4736 179.606 31.6699 179.177 32.8516C178.757 34.0332 178.308 35.1562 177.829 36.2207H186.193V22.3633ZM205.983 22.0557C205.114 22.0557 204.343 22.2266 203.669 22.5684C203.005 22.9004 202.443 23.3838 201.984 24.0186C201.535 24.6533 201.193 25.4199 200.959 26.3184C200.725 27.2168 200.607 28.2275 200.607 29.3506C200.607 30.8643 200.793 32.1582 201.164 33.2324C201.545 34.2969 202.131 35.1123 202.922 35.6787C203.713 36.2354 204.733 36.5137 205.983 36.5137C206.853 36.5137 207.722 36.416 208.591 36.2207C209.47 36.0254 210.422 35.7471 211.447 35.3857V39.1943C210.5 39.585 209.567 39.8633 208.649 40.0293C207.731 40.2051 206.701 40.293 205.559 40.293C203.352 40.293 201.535 39.8389 200.109 38.9307C198.693 38.0127 197.644 36.7334 196.96 35.0928C196.276 33.4424 195.935 31.5186 195.935 29.3213C195.935 27.7002 196.154 26.2158 196.594 24.8682C197.033 23.5205 197.678 22.3535 198.527 21.3672C199.377 20.3809 200.427 19.6191 201.677 19.082C202.927 18.5449 204.362 18.2764 205.983 18.2764C207.048 18.2764 208.112 18.4131 209.177 18.6865C210.251 18.9502 211.276 19.3164 212.253 19.7852L210.788 23.4766C209.987 23.0957 209.182 22.7637 208.371 22.4805C207.561 22.1973 206.765 22.0557 205.983 22.0557ZM224.279 40H219.738V22.3633H213.923V18.584H230.095V22.3633H224.279V40ZM233.391 18.584H240.056C242.907 18.584 245.065 18.9844 246.53 19.7852C247.995 20.5859 248.728 21.9922 248.728 24.0039C248.728 24.8145 248.596 25.5469 248.332 26.2012C248.078 26.8555 247.707 27.3926 247.219 27.8125C246.73 28.2324 246.135 28.5059 245.432 28.6328V28.7793C246.145 28.9258 246.789 29.1797 247.365 29.541C247.941 29.8926 248.4 30.4102 248.742 31.0938C249.094 31.7676 249.27 32.666 249.27 33.7891C249.27 35.0879 248.952 36.2012 248.317 37.1289C247.683 38.0566 246.774 38.7695 245.593 39.2676C244.421 39.7559 243.024 40 241.403 40H233.391V18.584ZM237.932 27.0654H240.568C241.887 27.0654 242.8 26.8604 243.308 26.4502C243.815 26.0303 244.069 25.415 244.069 24.6045C244.069 23.7842 243.767 23.1982 243.161 22.8467C242.565 22.4854 241.618 22.3047 240.319 22.3047H237.932V27.0654ZM237.932 30.6689V36.25H240.891C242.258 36.25 243.21 35.9863 243.747 35.459C244.284 34.9316 244.553 34.2236 244.553 33.335C244.553 32.8076 244.436 32.3438 244.201 31.9434C243.967 31.543 243.571 31.2305 243.015 31.0059C242.468 30.7812 241.711 30.6689 240.744 30.6689H237.932ZM272.985 29.2627C272.985 30.9131 272.78 32.417 272.37 33.7744C271.96 35.1221 271.335 36.2842 270.495 37.2607C269.665 38.2373 268.61 38.9893 267.331 39.5166C266.052 40.0342 264.538 40.293 262.79 40.293C261.042 40.293 259.528 40.0342 258.249 39.5166C256.97 38.9893 255.91 38.2373 255.07 37.2607C254.24 36.2842 253.62 35.1172 253.21 33.7598C252.8 32.4023 252.595 30.8936 252.595 29.2334C252.595 27.0166 252.956 25.0879 253.679 23.4473C254.411 21.7969 255.534 20.5176 257.048 19.6094C258.562 18.7012 260.485 18.2471 262.819 18.2471C265.144 18.2471 267.053 18.7012 268.547 19.6094C270.051 20.5176 271.164 21.7969 271.887 23.4473C272.619 25.0977 272.985 27.0361 272.985 29.2627ZM257.355 29.2627C257.355 30.7568 257.541 32.0459 257.912 33.1299C258.293 34.2041 258.884 35.0342 259.685 35.6201C260.485 36.1963 261.521 36.4844 262.79 36.4844C264.079 36.4844 265.124 36.1963 265.925 35.6201C266.726 35.0342 267.307 34.2041 267.668 33.1299C268.039 32.0459 268.225 30.7568 268.225 29.2627C268.225 27.0166 267.805 25.249 266.965 23.96C266.125 22.6709 264.743 22.0264 262.819 22.0264C261.54 22.0264 260.495 22.3193 259.685 22.9053C258.884 23.4814 258.293 24.3115 257.912 25.3955C257.541 26.4697 257.355 27.7588 257.355 29.2627Z" fill="#1E3D6B"/>
<path d="M10 18V40.5" stroke="#1E3D6B" stroke-width="7"/>
</svg>
